<mxfile host="Electron" modified="2023-06-30T16:24:40.440Z" agent="Mozilla/5.0 (Macintosh; Intel Mac OS X 10_15_7) AppleWebKit/537.36 (KHTML, like Gecko) draw.io/21.5.1 Chrome/112.0.5615.204 Electron/24.6.0 Safari/537.36" etag="gA-gXjElf8cMV0KsjjLh" version="21.5.1" type="device">
  <diagram name="Page-1" id="iZrOKNE0dZ5vgiQR7hcU">
    <mxGraphModel dx="1114" dy="769" grid="1" gridSize="10" guides="1" tooltips="1" connect="1" arrows="1" fold="1" page="1" pageScale="1" pageWidth="1200" pageHeight="1500" math="0" shadow="0">
      <root>
        <mxCell id="0" />
        <mxCell id="1" parent="0" />
        <mxCell id="EbKYetT5PZptqtUIF2Ld-97" value="" style="group" parent="1" vertex="1" connectable="0">
          <mxGeometry x="206" y="90" width="789" height="1100" as="geometry" />
        </mxCell>
        <mxCell id="EbKYetT5PZptqtUIF2Ld-1" value="HARDWARE STATE" style="rounded=0;whiteSpace=wrap;html=1;fillColor=#fff2cc;strokeColor=#d6b656;" parent="EbKYetT5PZptqtUIF2Ld-97" vertex="1">
          <mxGeometry x="315" width="170" height="60" as="geometry" />
        </mxCell>
        <mxCell id="EbKYetT5PZptqtUIF2Ld-33" value="" style="group" parent="EbKYetT5PZptqtUIF2Ld-97" vertex="1" connectable="0">
          <mxGeometry y="110" width="120" height="990" as="geometry" />
        </mxCell>
        <mxCell id="EbKYetT5PZptqtUIF2Ld-6" value="START.&amp;nbsp; &amp;nbsp; &amp;nbsp; &amp;nbsp;" style="triangle;whiteSpace=wrap;html=1;fillColor=#d5e8d4;strokeColor=#82b366;" parent="EbKYetT5PZptqtUIF2Ld-33" vertex="1">
          <mxGeometry x="15" y="90" width="100" height="80" as="geometry" />
        </mxCell>
        <mxCell id="EbKYetT5PZptqtUIF2Ld-7" value="IDLE/READY" style="ellipse;whiteSpace=wrap;html=1;fillColor=#dae8fc;strokeColor=#6c8ebf;" parent="EbKYetT5PZptqtUIF2Ld-33" vertex="1">
          <mxGeometry x="10" width="110" height="70" as="geometry" />
        </mxCell>
        <mxCell id="EbKYetT5PZptqtUIF2Ld-8" value="payment module&lt;br&gt;DISABLED" style="rounded=0;whiteSpace=wrap;html=1;fillColor=#f8cecc;strokeColor=#b85450;" parent="EbKYetT5PZptqtUIF2Ld-33" vertex="1">
          <mxGeometry y="200" width="120" height="60" as="geometry" />
        </mxCell>
        <mxCell id="EbKYetT5PZptqtUIF2Ld-31" style="edgeStyle=orthogonalEdgeStyle;rounded=0;orthogonalLoop=1;jettySize=auto;html=1;entryX=0.5;entryY=0;entryDx=0;entryDy=0;" parent="EbKYetT5PZptqtUIF2Ld-33" source="EbKYetT5PZptqtUIF2Ld-6" target="EbKYetT5PZptqtUIF2Ld-8" edge="1">
          <mxGeometry relative="1" as="geometry" />
        </mxCell>
        <mxCell id="EbKYetT5PZptqtUIF2Ld-9" value="LCD screen&lt;br&gt;ENABLED" style="rounded=0;whiteSpace=wrap;html=1;fillColor=#dae8fc;strokeColor=#6c8ebf;" parent="EbKYetT5PZptqtUIF2Ld-33" vertex="1">
          <mxGeometry y="300" width="120" height="60" as="geometry" />
        </mxCell>
        <mxCell id="EbKYetT5PZptqtUIF2Ld-18" style="edgeStyle=orthogonalEdgeStyle;rounded=0;orthogonalLoop=1;jettySize=auto;html=1;entryX=0.5;entryY=0;entryDx=0;entryDy=0;" parent="EbKYetT5PZptqtUIF2Ld-33" source="EbKYetT5PZptqtUIF2Ld-8" target="EbKYetT5PZptqtUIF2Ld-9" edge="1">
          <mxGeometry relative="1" as="geometry" />
        </mxCell>
        <mxCell id="EbKYetT5PZptqtUIF2Ld-10" value="column/row buttons&lt;br&gt;DISABLED" style="rounded=0;whiteSpace=wrap;html=1;fillColor=#f8cecc;strokeColor=#b85450;" parent="EbKYetT5PZptqtUIF2Ld-33" vertex="1">
          <mxGeometry y="400" width="120" height="60" as="geometry" />
        </mxCell>
        <mxCell id="EbKYetT5PZptqtUIF2Ld-19" style="edgeStyle=orthogonalEdgeStyle;rounded=0;orthogonalLoop=1;jettySize=auto;html=1;entryX=0.5;entryY=0;entryDx=0;entryDy=0;" parent="EbKYetT5PZptqtUIF2Ld-33" source="EbKYetT5PZptqtUIF2Ld-9" target="EbKYetT5PZptqtUIF2Ld-10" edge="1">
          <mxGeometry relative="1" as="geometry" />
        </mxCell>
        <mxCell id="EbKYetT5PZptqtUIF2Ld-12" value="Enter button&lt;br&gt;ENABLED" style="rounded=0;whiteSpace=wrap;html=1;fillColor=#dae8fc;strokeColor=#6c8ebf;" parent="EbKYetT5PZptqtUIF2Ld-33" vertex="1">
          <mxGeometry y="500" width="120" height="60" as="geometry" />
        </mxCell>
        <mxCell id="EbKYetT5PZptqtUIF2Ld-21" style="edgeStyle=orthogonalEdgeStyle;rounded=0;orthogonalLoop=1;jettySize=auto;html=1;entryX=0.5;entryY=0;entryDx=0;entryDy=0;" parent="EbKYetT5PZptqtUIF2Ld-33" source="EbKYetT5PZptqtUIF2Ld-10" target="EbKYetT5PZptqtUIF2Ld-12" edge="1">
          <mxGeometry relative="1" as="geometry" />
        </mxCell>
        <mxCell id="EbKYetT5PZptqtUIF2Ld-13" value="Correct button&lt;br&gt;DISABLED" style="rounded=0;whiteSpace=wrap;html=1;fillColor=#f8cecc;strokeColor=#b85450;" parent="EbKYetT5PZptqtUIF2Ld-33" vertex="1">
          <mxGeometry y="600" width="120" height="60" as="geometry" />
        </mxCell>
        <mxCell id="EbKYetT5PZptqtUIF2Ld-22" style="edgeStyle=orthogonalEdgeStyle;rounded=0;orthogonalLoop=1;jettySize=auto;html=1;entryX=0.5;entryY=0;entryDx=0;entryDy=0;" parent="EbKYetT5PZptqtUIF2Ld-33" source="EbKYetT5PZptqtUIF2Ld-12" target="EbKYetT5PZptqtUIF2Ld-13" edge="1">
          <mxGeometry relative="1" as="geometry" />
        </mxCell>
        <mxCell id="EbKYetT5PZptqtUIF2Ld-14" value="Cancel button&lt;br&gt;DISABLED" style="rounded=0;whiteSpace=wrap;html=1;fillColor=#f8cecc;strokeColor=#b85450;" parent="EbKYetT5PZptqtUIF2Ld-33" vertex="1">
          <mxGeometry y="700" width="120" height="60" as="geometry" />
        </mxCell>
        <mxCell id="EbKYetT5PZptqtUIF2Ld-23" style="edgeStyle=orthogonalEdgeStyle;rounded=0;orthogonalLoop=1;jettySize=auto;html=1;entryX=0.5;entryY=0;entryDx=0;entryDy=0;" parent="EbKYetT5PZptqtUIF2Ld-33" source="EbKYetT5PZptqtUIF2Ld-13" target="EbKYetT5PZptqtUIF2Ld-14" edge="1">
          <mxGeometry relative="1" as="geometry" />
        </mxCell>
        <mxCell id="EbKYetT5PZptqtUIF2Ld-15" value="Pay button&lt;br&gt;DISABLED" style="rounded=0;whiteSpace=wrap;html=1;fillColor=#f8cecc;strokeColor=#b85450;" parent="EbKYetT5PZptqtUIF2Ld-33" vertex="1">
          <mxGeometry y="800" width="120" height="60" as="geometry" />
        </mxCell>
        <mxCell id="EbKYetT5PZptqtUIF2Ld-24" style="edgeStyle=orthogonalEdgeStyle;rounded=0;orthogonalLoop=1;jettySize=auto;html=1;" parent="EbKYetT5PZptqtUIF2Ld-33" source="EbKYetT5PZptqtUIF2Ld-14" target="EbKYetT5PZptqtUIF2Ld-15" edge="1">
          <mxGeometry relative="1" as="geometry" />
        </mxCell>
        <mxCell id="EbKYetT5PZptqtUIF2Ld-25" value="END" style="whiteSpace=wrap;html=1;aspect=fixed;fillColor=#f5f5f5;strokeColor=#666666;fontColor=#333333;" parent="EbKYetT5PZptqtUIF2Ld-33" vertex="1">
          <mxGeometry x="20" y="910" width="80" height="80" as="geometry" />
        </mxCell>
        <mxCell id="EbKYetT5PZptqtUIF2Ld-26" style="edgeStyle=orthogonalEdgeStyle;rounded=0;orthogonalLoop=1;jettySize=auto;html=1;entryX=0.5;entryY=0;entryDx=0;entryDy=0;" parent="EbKYetT5PZptqtUIF2Ld-33" source="EbKYetT5PZptqtUIF2Ld-15" target="EbKYetT5PZptqtUIF2Ld-25" edge="1">
          <mxGeometry relative="1" as="geometry" />
        </mxCell>
        <mxCell id="EbKYetT5PZptqtUIF2Ld-32" style="edgeStyle=orthogonalEdgeStyle;rounded=0;orthogonalLoop=1;jettySize=auto;html=1;entryX=0.5;entryY=0;entryDx=0;entryDy=0;" parent="EbKYetT5PZptqtUIF2Ld-97" source="EbKYetT5PZptqtUIF2Ld-1" target="EbKYetT5PZptqtUIF2Ld-7" edge="1">
          <mxGeometry relative="1" as="geometry" />
        </mxCell>
        <mxCell id="EbKYetT5PZptqtUIF2Ld-34" value="" style="group" parent="EbKYetT5PZptqtUIF2Ld-97" vertex="1" connectable="0">
          <mxGeometry x="235" y="110" width="120" height="990" as="geometry" />
        </mxCell>
        <mxCell id="EbKYetT5PZptqtUIF2Ld-35" value="START.&amp;nbsp; &amp;nbsp; &amp;nbsp; &amp;nbsp;" style="triangle;whiteSpace=wrap;html=1;fillColor=#d5e8d4;strokeColor=#82b366;" parent="EbKYetT5PZptqtUIF2Ld-34" vertex="1">
          <mxGeometry x="15" y="90" width="100" height="80" as="geometry" />
        </mxCell>
        <mxCell id="EbKYetT5PZptqtUIF2Ld-36" value="ACTIVE STATUS" style="ellipse;whiteSpace=wrap;html=1;fillColor=#dae8fc;strokeColor=#6c8ebf;" parent="EbKYetT5PZptqtUIF2Ld-34" vertex="1">
          <mxGeometry x="10" width="110" height="70" as="geometry" />
        </mxCell>
        <mxCell id="EbKYetT5PZptqtUIF2Ld-37" value="payment module&lt;br&gt;DISABLED" style="rounded=0;whiteSpace=wrap;html=1;fillColor=#f8cecc;strokeColor=#b85450;" parent="EbKYetT5PZptqtUIF2Ld-34" vertex="1">
          <mxGeometry y="200" width="120" height="60" as="geometry" />
        </mxCell>
        <mxCell id="EbKYetT5PZptqtUIF2Ld-38" style="edgeStyle=orthogonalEdgeStyle;rounded=0;orthogonalLoop=1;jettySize=auto;html=1;entryX=0.5;entryY=0;entryDx=0;entryDy=0;" parent="EbKYetT5PZptqtUIF2Ld-34" source="EbKYetT5PZptqtUIF2Ld-35" target="EbKYetT5PZptqtUIF2Ld-37" edge="1">
          <mxGeometry relative="1" as="geometry" />
        </mxCell>
        <mxCell id="EbKYetT5PZptqtUIF2Ld-39" value="LCD screen&lt;br&gt;ENABLED" style="rounded=0;whiteSpace=wrap;html=1;fillColor=#dae8fc;strokeColor=#6c8ebf;" parent="EbKYetT5PZptqtUIF2Ld-34" vertex="1">
          <mxGeometry y="300" width="120" height="60" as="geometry" />
        </mxCell>
        <mxCell id="EbKYetT5PZptqtUIF2Ld-40" style="edgeStyle=orthogonalEdgeStyle;rounded=0;orthogonalLoop=1;jettySize=auto;html=1;entryX=0.5;entryY=0;entryDx=0;entryDy=0;" parent="EbKYetT5PZptqtUIF2Ld-34" source="EbKYetT5PZptqtUIF2Ld-37" target="EbKYetT5PZptqtUIF2Ld-39" edge="1">
          <mxGeometry relative="1" as="geometry" />
        </mxCell>
        <mxCell id="EbKYetT5PZptqtUIF2Ld-41" value="column/row buttons&lt;br&gt;ENABLED" style="rounded=0;whiteSpace=wrap;html=1;fillColor=#dae8fc;strokeColor=#6c8ebf;" parent="EbKYetT5PZptqtUIF2Ld-34" vertex="1">
          <mxGeometry y="400" width="120" height="60" as="geometry" />
        </mxCell>
        <mxCell id="EbKYetT5PZptqtUIF2Ld-42" style="edgeStyle=orthogonalEdgeStyle;rounded=0;orthogonalLoop=1;jettySize=auto;html=1;entryX=0.5;entryY=0;entryDx=0;entryDy=0;" parent="EbKYetT5PZptqtUIF2Ld-34" source="EbKYetT5PZptqtUIF2Ld-39" target="EbKYetT5PZptqtUIF2Ld-41" edge="1">
          <mxGeometry relative="1" as="geometry" />
        </mxCell>
        <mxCell id="EbKYetT5PZptqtUIF2Ld-43" value="Enter button&lt;br&gt;ENABLED" style="rounded=0;whiteSpace=wrap;html=1;fillColor=#dae8fc;strokeColor=#6c8ebf;" parent="EbKYetT5PZptqtUIF2Ld-34" vertex="1">
          <mxGeometry y="500" width="120" height="60" as="geometry" />
        </mxCell>
        <mxCell id="EbKYetT5PZptqtUIF2Ld-44" style="edgeStyle=orthogonalEdgeStyle;rounded=0;orthogonalLoop=1;jettySize=auto;html=1;entryX=0.5;entryY=0;entryDx=0;entryDy=0;" parent="EbKYetT5PZptqtUIF2Ld-34" source="EbKYetT5PZptqtUIF2Ld-41" target="EbKYetT5PZptqtUIF2Ld-43" edge="1">
          <mxGeometry relative="1" as="geometry" />
        </mxCell>
        <mxCell id="EbKYetT5PZptqtUIF2Ld-45" value="Correct button&lt;br&gt;ENABLED" style="rounded=0;whiteSpace=wrap;html=1;fillColor=#dae8fc;strokeColor=#6c8ebf;" parent="EbKYetT5PZptqtUIF2Ld-34" vertex="1">
          <mxGeometry y="600" width="120" height="60" as="geometry" />
        </mxCell>
        <mxCell id="EbKYetT5PZptqtUIF2Ld-46" style="edgeStyle=orthogonalEdgeStyle;rounded=0;orthogonalLoop=1;jettySize=auto;html=1;entryX=0.5;entryY=0;entryDx=0;entryDy=0;" parent="EbKYetT5PZptqtUIF2Ld-34" source="EbKYetT5PZptqtUIF2Ld-43" target="EbKYetT5PZptqtUIF2Ld-45" edge="1">
          <mxGeometry relative="1" as="geometry" />
        </mxCell>
        <mxCell id="EbKYetT5PZptqtUIF2Ld-47" value="Cancel button&lt;br&gt;ENABLED" style="rounded=0;whiteSpace=wrap;html=1;fillColor=#dae8fc;strokeColor=#6c8ebf;" parent="EbKYetT5PZptqtUIF2Ld-34" vertex="1">
          <mxGeometry y="700" width="120" height="60" as="geometry" />
        </mxCell>
        <mxCell id="EbKYetT5PZptqtUIF2Ld-48" style="edgeStyle=orthogonalEdgeStyle;rounded=0;orthogonalLoop=1;jettySize=auto;html=1;entryX=0.5;entryY=0;entryDx=0;entryDy=0;" parent="EbKYetT5PZptqtUIF2Ld-34" source="EbKYetT5PZptqtUIF2Ld-45" target="EbKYetT5PZptqtUIF2Ld-47" edge="1">
          <mxGeometry relative="1" as="geometry" />
        </mxCell>
        <mxCell id="EbKYetT5PZptqtUIF2Ld-49" value="Pay button&lt;br&gt;ENABLED" style="rounded=0;whiteSpace=wrap;html=1;fillColor=#dae8fc;strokeColor=#6c8ebf;" parent="EbKYetT5PZptqtUIF2Ld-34" vertex="1">
          <mxGeometry y="800" width="120" height="60" as="geometry" />
        </mxCell>
        <mxCell id="EbKYetT5PZptqtUIF2Ld-50" style="edgeStyle=orthogonalEdgeStyle;rounded=0;orthogonalLoop=1;jettySize=auto;html=1;" parent="EbKYetT5PZptqtUIF2Ld-34" source="EbKYetT5PZptqtUIF2Ld-47" target="EbKYetT5PZptqtUIF2Ld-49" edge="1">
          <mxGeometry relative="1" as="geometry" />
        </mxCell>
        <mxCell id="EbKYetT5PZptqtUIF2Ld-51" value="END" style="whiteSpace=wrap;html=1;aspect=fixed;fillColor=#f5f5f5;strokeColor=#666666;fontColor=#333333;" parent="EbKYetT5PZptqtUIF2Ld-34" vertex="1">
          <mxGeometry x="20" y="910" width="80" height="80" as="geometry" />
        </mxCell>
        <mxCell id="EbKYetT5PZptqtUIF2Ld-52" style="edgeStyle=orthogonalEdgeStyle;rounded=0;orthogonalLoop=1;jettySize=auto;html=1;entryX=0.5;entryY=0;entryDx=0;entryDy=0;" parent="EbKYetT5PZptqtUIF2Ld-34" source="EbKYetT5PZptqtUIF2Ld-49" target="EbKYetT5PZptqtUIF2Ld-51" edge="1">
          <mxGeometry relative="1" as="geometry" />
        </mxCell>
        <mxCell id="EbKYetT5PZptqtUIF2Ld-93" style="edgeStyle=orthogonalEdgeStyle;rounded=0;orthogonalLoop=1;jettySize=auto;html=1;entryX=0.5;entryY=0;entryDx=0;entryDy=0;" parent="EbKYetT5PZptqtUIF2Ld-97" source="EbKYetT5PZptqtUIF2Ld-1" target="EbKYetT5PZptqtUIF2Ld-36" edge="1">
          <mxGeometry relative="1" as="geometry">
            <Array as="points">
              <mxPoint x="355" y="85" />
              <mxPoint x="300" y="85" />
            </Array>
          </mxGeometry>
        </mxCell>
        <mxCell id="EbKYetT5PZptqtUIF2Ld-53" value="" style="group" parent="EbKYetT5PZptqtUIF2Ld-97" vertex="1" connectable="0">
          <mxGeometry x="458" y="110" width="120" height="990" as="geometry" />
        </mxCell>
        <mxCell id="EbKYetT5PZptqtUIF2Ld-54" value="START.&amp;nbsp; &amp;nbsp; &amp;nbsp; &amp;nbsp;" style="triangle;whiteSpace=wrap;html=1;fillColor=#d5e8d4;strokeColor=#82b366;" parent="EbKYetT5PZptqtUIF2Ld-53" vertex="1">
          <mxGeometry x="15" y="90" width="100" height="80" as="geometry" />
        </mxCell>
        <mxCell id="EbKYetT5PZptqtUIF2Ld-55" value="PAYMENT STATUS" style="ellipse;whiteSpace=wrap;html=1;fillColor=#dae8fc;strokeColor=#6c8ebf;" parent="EbKYetT5PZptqtUIF2Ld-53" vertex="1">
          <mxGeometry x="10" width="110" height="70" as="geometry" />
        </mxCell>
        <mxCell id="EbKYetT5PZptqtUIF2Ld-56" value="payment module&lt;br&gt;ENABLED" style="rounded=0;whiteSpace=wrap;html=1;fillColor=#dae8fc;strokeColor=#6c8ebf;" parent="EbKYetT5PZptqtUIF2Ld-53" vertex="1">
          <mxGeometry y="200" width="120" height="60" as="geometry" />
        </mxCell>
        <mxCell id="EbKYetT5PZptqtUIF2Ld-57" style="edgeStyle=orthogonalEdgeStyle;rounded=0;orthogonalLoop=1;jettySize=auto;html=1;entryX=0.5;entryY=0;entryDx=0;entryDy=0;" parent="EbKYetT5PZptqtUIF2Ld-53" source="EbKYetT5PZptqtUIF2Ld-54" target="EbKYetT5PZptqtUIF2Ld-56" edge="1">
          <mxGeometry relative="1" as="geometry" />
        </mxCell>
        <mxCell id="EbKYetT5PZptqtUIF2Ld-58" value="LCD screen&lt;br&gt;ENABLED" style="rounded=0;whiteSpace=wrap;html=1;fillColor=#dae8fc;strokeColor=#6c8ebf;" parent="EbKYetT5PZptqtUIF2Ld-53" vertex="1">
          <mxGeometry y="300" width="120" height="60" as="geometry" />
        </mxCell>
        <mxCell id="EbKYetT5PZptqtUIF2Ld-59" style="edgeStyle=orthogonalEdgeStyle;rounded=0;orthogonalLoop=1;jettySize=auto;html=1;entryX=0.5;entryY=0;entryDx=0;entryDy=0;" parent="EbKYetT5PZptqtUIF2Ld-53" source="EbKYetT5PZptqtUIF2Ld-56" target="EbKYetT5PZptqtUIF2Ld-58" edge="1">
          <mxGeometry relative="1" as="geometry" />
        </mxCell>
        <mxCell id="EbKYetT5PZptqtUIF2Ld-60" value="column/row buttons&lt;br&gt;DISABLED" style="rounded=0;whiteSpace=wrap;html=1;fillColor=#f8cecc;strokeColor=#b85450;" parent="EbKYetT5PZptqtUIF2Ld-53" vertex="1">
          <mxGeometry y="400" width="120" height="60" as="geometry" />
        </mxCell>
        <mxCell id="EbKYetT5PZptqtUIF2Ld-61" style="edgeStyle=orthogonalEdgeStyle;rounded=0;orthogonalLoop=1;jettySize=auto;html=1;entryX=0.5;entryY=0;entryDx=0;entryDy=0;" parent="EbKYetT5PZptqtUIF2Ld-53" source="EbKYetT5PZptqtUIF2Ld-58" target="EbKYetT5PZptqtUIF2Ld-60" edge="1">
          <mxGeometry relative="1" as="geometry" />
        </mxCell>
        <mxCell id="EbKYetT5PZptqtUIF2Ld-62" value="Enter button&lt;br&gt;DISABLED" style="rounded=0;whiteSpace=wrap;html=1;fillColor=#f8cecc;strokeColor=#b85450;" parent="EbKYetT5PZptqtUIF2Ld-53" vertex="1">
          <mxGeometry y="500" width="120" height="60" as="geometry" />
        </mxCell>
        <mxCell id="EbKYetT5PZptqtUIF2Ld-63" style="edgeStyle=orthogonalEdgeStyle;rounded=0;orthogonalLoop=1;jettySize=auto;html=1;entryX=0.5;entryY=0;entryDx=0;entryDy=0;" parent="EbKYetT5PZptqtUIF2Ld-53" source="EbKYetT5PZptqtUIF2Ld-60" target="EbKYetT5PZptqtUIF2Ld-62" edge="1">
          <mxGeometry relative="1" as="geometry" />
        </mxCell>
        <mxCell id="EbKYetT5PZptqtUIF2Ld-64" value="Correct button&lt;br&gt;DISABLED" style="rounded=0;whiteSpace=wrap;html=1;fillColor=#f8cecc;strokeColor=#b85450;" parent="EbKYetT5PZptqtUIF2Ld-53" vertex="1">
          <mxGeometry y="600" width="120" height="60" as="geometry" />
        </mxCell>
        <mxCell id="EbKYetT5PZptqtUIF2Ld-65" style="edgeStyle=orthogonalEdgeStyle;rounded=0;orthogonalLoop=1;jettySize=auto;html=1;entryX=0.5;entryY=0;entryDx=0;entryDy=0;" parent="EbKYetT5PZptqtUIF2Ld-53" source="EbKYetT5PZptqtUIF2Ld-62" target="EbKYetT5PZptqtUIF2Ld-64" edge="1">
          <mxGeometry relative="1" as="geometry" />
        </mxCell>
        <mxCell id="EbKYetT5PZptqtUIF2Ld-66" value="Cancel button&lt;br&gt;ENABLED" style="rounded=0;whiteSpace=wrap;html=1;fillColor=#dae8fc;strokeColor=#6c8ebf;" parent="EbKYetT5PZptqtUIF2Ld-53" vertex="1">
          <mxGeometry y="700" width="120" height="60" as="geometry" />
        </mxCell>
        <mxCell id="EbKYetT5PZptqtUIF2Ld-67" style="edgeStyle=orthogonalEdgeStyle;rounded=0;orthogonalLoop=1;jettySize=auto;html=1;entryX=0.5;entryY=0;entryDx=0;entryDy=0;" parent="EbKYetT5PZptqtUIF2Ld-53" source="EbKYetT5PZptqtUIF2Ld-64" target="EbKYetT5PZptqtUIF2Ld-66" edge="1">
          <mxGeometry relative="1" as="geometry" />
        </mxCell>
        <mxCell id="EbKYetT5PZptqtUIF2Ld-68" value="Pay button&lt;br&gt;DISABLED" style="rounded=0;whiteSpace=wrap;html=1;fillColor=#f8cecc;strokeColor=#b85450;" parent="EbKYetT5PZptqtUIF2Ld-53" vertex="1">
          <mxGeometry y="800" width="120" height="60" as="geometry" />
        </mxCell>
        <mxCell id="EbKYetT5PZptqtUIF2Ld-69" style="edgeStyle=orthogonalEdgeStyle;rounded=0;orthogonalLoop=1;jettySize=auto;html=1;" parent="EbKYetT5PZptqtUIF2Ld-53" source="EbKYetT5PZptqtUIF2Ld-66" target="EbKYetT5PZptqtUIF2Ld-68" edge="1">
          <mxGeometry relative="1" as="geometry" />
        </mxCell>
        <mxCell id="EbKYetT5PZptqtUIF2Ld-70" value="END" style="whiteSpace=wrap;html=1;aspect=fixed;fillColor=#f5f5f5;strokeColor=#666666;fontColor=#333333;" parent="EbKYetT5PZptqtUIF2Ld-53" vertex="1">
          <mxGeometry x="20" y="910" width="80" height="80" as="geometry" />
        </mxCell>
        <mxCell id="EbKYetT5PZptqtUIF2Ld-71" style="edgeStyle=orthogonalEdgeStyle;rounded=0;orthogonalLoop=1;jettySize=auto;html=1;entryX=0.5;entryY=0;entryDx=0;entryDy=0;" parent="EbKYetT5PZptqtUIF2Ld-53" source="EbKYetT5PZptqtUIF2Ld-68" target="EbKYetT5PZptqtUIF2Ld-70" edge="1">
          <mxGeometry relative="1" as="geometry" />
        </mxCell>
        <mxCell id="EbKYetT5PZptqtUIF2Ld-95" style="edgeStyle=orthogonalEdgeStyle;rounded=0;orthogonalLoop=1;jettySize=auto;html=1;entryX=0.5;entryY=0;entryDx=0;entryDy=0;" parent="EbKYetT5PZptqtUIF2Ld-97" source="EbKYetT5PZptqtUIF2Ld-1" target="EbKYetT5PZptqtUIF2Ld-55" edge="1">
          <mxGeometry relative="1" as="geometry">
            <Array as="points">
              <mxPoint x="445" y="85" />
              <mxPoint x="523" y="85" />
            </Array>
          </mxGeometry>
        </mxCell>
        <mxCell id="EbKYetT5PZptqtUIF2Ld-72" value="" style="group" parent="EbKYetT5PZptqtUIF2Ld-97" vertex="1" connectable="0">
          <mxGeometry x="669" y="110" width="120" height="990" as="geometry" />
        </mxCell>
        <mxCell id="EbKYetT5PZptqtUIF2Ld-73" value="START.&amp;nbsp; &amp;nbsp; &amp;nbsp; &amp;nbsp;" style="triangle;whiteSpace=wrap;html=1;fillColor=#d5e8d4;strokeColor=#82b366;" parent="EbKYetT5PZptqtUIF2Ld-72" vertex="1">
          <mxGeometry x="15" y="90" width="100" height="80" as="geometry" />
        </mxCell>
        <mxCell id="EbKYetT5PZptqtUIF2Ld-74" value="CANCEL" style="ellipse;whiteSpace=wrap;html=1;fillColor=#dae8fc;strokeColor=#6c8ebf;" parent="EbKYetT5PZptqtUIF2Ld-72" vertex="1">
          <mxGeometry x="10" width="110" height="70" as="geometry" />
        </mxCell>
        <mxCell id="EbKYetT5PZptqtUIF2Ld-75" value="payment module&lt;br&gt;DISABLED" style="rounded=0;whiteSpace=wrap;html=1;fillColor=#f8cecc;strokeColor=#b85450;" parent="EbKYetT5PZptqtUIF2Ld-72" vertex="1">
          <mxGeometry y="200" width="120" height="60" as="geometry" />
        </mxCell>
        <mxCell id="EbKYetT5PZptqtUIF2Ld-76" style="edgeStyle=orthogonalEdgeStyle;rounded=0;orthogonalLoop=1;jettySize=auto;html=1;entryX=0.5;entryY=0;entryDx=0;entryDy=0;" parent="EbKYetT5PZptqtUIF2Ld-72" source="EbKYetT5PZptqtUIF2Ld-73" target="EbKYetT5PZptqtUIF2Ld-75" edge="1">
          <mxGeometry relative="1" as="geometry" />
        </mxCell>
        <mxCell id="EbKYetT5PZptqtUIF2Ld-77" value="LCD screen&lt;br&gt;ENABLED" style="rounded=0;whiteSpace=wrap;html=1;fillColor=#dae8fc;strokeColor=#6c8ebf;" parent="EbKYetT5PZptqtUIF2Ld-72" vertex="1">
          <mxGeometry y="300" width="120" height="60" as="geometry" />
        </mxCell>
        <mxCell id="EbKYetT5PZptqtUIF2Ld-78" style="edgeStyle=orthogonalEdgeStyle;rounded=0;orthogonalLoop=1;jettySize=auto;html=1;entryX=0.5;entryY=0;entryDx=0;entryDy=0;" parent="EbKYetT5PZptqtUIF2Ld-72" source="EbKYetT5PZptqtUIF2Ld-75" target="EbKYetT5PZptqtUIF2Ld-77" edge="1">
          <mxGeometry relative="1" as="geometry" />
        </mxCell>
        <mxCell id="EbKYetT5PZptqtUIF2Ld-79" value="column/row buttons&lt;br&gt;DISABLED" style="rounded=0;whiteSpace=wrap;html=1;fillColor=#f8cecc;strokeColor=#b85450;" parent="EbKYetT5PZptqtUIF2Ld-72" vertex="1">
          <mxGeometry y="400" width="120" height="60" as="geometry" />
        </mxCell>
        <mxCell id="EbKYetT5PZptqtUIF2Ld-80" style="edgeStyle=orthogonalEdgeStyle;rounded=0;orthogonalLoop=1;jettySize=auto;html=1;entryX=0.5;entryY=0;entryDx=0;entryDy=0;" parent="EbKYetT5PZptqtUIF2Ld-72" source="EbKYetT5PZptqtUIF2Ld-77" target="EbKYetT5PZptqtUIF2Ld-79" edge="1">
          <mxGeometry relative="1" as="geometry" />
        </mxCell>
        <mxCell id="EbKYetT5PZptqtUIF2Ld-81" value="Enter button&lt;br&gt;DISABLED" style="rounded=0;whiteSpace=wrap;html=1;fillColor=#f8cecc;strokeColor=#b85450;" parent="EbKYetT5PZptqtUIF2Ld-72" vertex="1">
          <mxGeometry y="500" width="120" height="60" as="geometry" />
        </mxCell>
        <mxCell id="EbKYetT5PZptqtUIF2Ld-82" style="edgeStyle=orthogonalEdgeStyle;rounded=0;orthogonalLoop=1;jettySize=auto;html=1;entryX=0.5;entryY=0;entryDx=0;entryDy=0;" parent="EbKYetT5PZptqtUIF2Ld-72" source="EbKYetT5PZptqtUIF2Ld-79" target="EbKYetT5PZptqtUIF2Ld-81" edge="1">
          <mxGeometry relative="1" as="geometry" />
        </mxCell>
        <mxCell id="EbKYetT5PZptqtUIF2Ld-83" value="Correct button&lt;br&gt;DISABLED" style="rounded=0;whiteSpace=wrap;html=1;fillColor=#f8cecc;strokeColor=#b85450;" parent="EbKYetT5PZptqtUIF2Ld-72" vertex="1">
          <mxGeometry y="600" width="120" height="60" as="geometry" />
        </mxCell>
        <mxCell id="EbKYetT5PZptqtUIF2Ld-84" style="edgeStyle=orthogonalEdgeStyle;rounded=0;orthogonalLoop=1;jettySize=auto;html=1;entryX=0.5;entryY=0;entryDx=0;entryDy=0;" parent="EbKYetT5PZptqtUIF2Ld-72" source="EbKYetT5PZptqtUIF2Ld-81" target="EbKYetT5PZptqtUIF2Ld-83" edge="1">
          <mxGeometry relative="1" as="geometry" />
        </mxCell>
        <mxCell id="EbKYetT5PZptqtUIF2Ld-85" value="Cancel button&lt;br&gt;DISABLED" style="rounded=0;whiteSpace=wrap;html=1;fillColor=#f8cecc;strokeColor=#b85450;" parent="EbKYetT5PZptqtUIF2Ld-72" vertex="1">
          <mxGeometry y="700" width="120" height="60" as="geometry" />
        </mxCell>
        <mxCell id="EbKYetT5PZptqtUIF2Ld-86" style="edgeStyle=orthogonalEdgeStyle;rounded=0;orthogonalLoop=1;jettySize=auto;html=1;entryX=0.5;entryY=0;entryDx=0;entryDy=0;" parent="EbKYetT5PZptqtUIF2Ld-72" source="EbKYetT5PZptqtUIF2Ld-83" target="EbKYetT5PZptqtUIF2Ld-85" edge="1">
          <mxGeometry relative="1" as="geometry" />
        </mxCell>
        <mxCell id="EbKYetT5PZptqtUIF2Ld-87" value="Pay button&lt;br&gt;DISABLED" style="rounded=0;whiteSpace=wrap;html=1;fillColor=#f8cecc;strokeColor=#b85450;" parent="EbKYetT5PZptqtUIF2Ld-72" vertex="1">
          <mxGeometry y="800" width="120" height="60" as="geometry" />
        </mxCell>
        <mxCell id="EbKYetT5PZptqtUIF2Ld-88" style="edgeStyle=orthogonalEdgeStyle;rounded=0;orthogonalLoop=1;jettySize=auto;html=1;" parent="EbKYetT5PZptqtUIF2Ld-72" source="EbKYetT5PZptqtUIF2Ld-85" target="EbKYetT5PZptqtUIF2Ld-87" edge="1">
          <mxGeometry relative="1" as="geometry" />
        </mxCell>
        <mxCell id="EbKYetT5PZptqtUIF2Ld-89" value="END" style="whiteSpace=wrap;html=1;aspect=fixed;fillColor=#f5f5f5;strokeColor=#666666;fontColor=#333333;" parent="EbKYetT5PZptqtUIF2Ld-72" vertex="1">
          <mxGeometry x="20" y="910" width="80" height="80" as="geometry" />
        </mxCell>
        <mxCell id="EbKYetT5PZptqtUIF2Ld-90" style="edgeStyle=orthogonalEdgeStyle;rounded=0;orthogonalLoop=1;jettySize=auto;html=1;entryX=0.5;entryY=0;entryDx=0;entryDy=0;" parent="EbKYetT5PZptqtUIF2Ld-72" source="EbKYetT5PZptqtUIF2Ld-87" target="EbKYetT5PZptqtUIF2Ld-89" edge="1">
          <mxGeometry relative="1" as="geometry" />
        </mxCell>
        <mxCell id="EbKYetT5PZptqtUIF2Ld-96" style="edgeStyle=orthogonalEdgeStyle;rounded=0;orthogonalLoop=1;jettySize=auto;html=1;entryX=0.5;entryY=0;entryDx=0;entryDy=0;" parent="EbKYetT5PZptqtUIF2Ld-97" source="EbKYetT5PZptqtUIF2Ld-1" target="EbKYetT5PZptqtUIF2Ld-74" edge="1">
          <mxGeometry relative="1" as="geometry" />
        </mxCell>
        <mxCell id="EbKYetT5PZptqtUIF2Ld-98" value="&lt;font style=&quot;font-size: 18px;&quot;&gt;&lt;b&gt;WORKSHOP 6 -&amp;nbsp; LOGIC 1&lt;/b&gt;&lt;br&gt;&lt;br&gt;HIRAN BORBA&lt;br&gt;147216220&lt;br&gt;&lt;/font&gt;&lt;div style=&quot;&quot;&gt;&lt;span style=&quot;background-color: initial;&quot;&gt;&lt;font size=&quot;3&quot;&gt;APS145-ZDD-G5-M4&lt;/font&gt;&lt;/span&gt;&lt;/div&gt;" style="text;html=1;align=left;verticalAlign=middle;resizable=0;points=[];autosize=1;strokeColor=none;fillColor=none;" parent="1" vertex="1">
          <mxGeometry x="20" y="30" width="240" height="120" as="geometry" />
        </mxCell>
      </root>
    </mxGraphModel>
  </diagram>
</mxfile>
